<svg width="34" height="35" viewBox="0 0 34 35" fill="none" xmlns="http://www.w3.org/2000/svg">
<path d="M17.0002 24.3177C20.682 24.3177 23.6668 21.2432 23.6668 17.4508C23.6668 13.6584 20.682 10.584 17.0002 10.584C13.3183 10.584 10.3335 13.6584 10.3335 17.4508C10.3335 21.2432 13.3183 24.3177 17.0002 24.3177Z" stroke="#D41010" stroke-width="3" stroke-linecap="round" stroke-linejoin="round"/>
<path d="M2 24.3172V10.5836C2 5.843 5.73097 2 10.3333 2H23.6667C28.269 2 32 5.843 32 10.5836V24.3172C32 29.0578 28.269 32.9008 23.6667 32.9008H10.3333C5.73097 32.9008 2 29.0578 2 24.3172Z" stroke="#D41010" stroke-width="3"/>
<path d="M26.1665 8.02539L26.1827 8.00684" stroke="#D41010" stroke-width="3" stroke-linecap="round" stroke-linejoin="round"/>
</svg>
