<?xml version="1.0" encoding="UTF-8"?>
<svg id="Layer_2" data-name="Layer 2" xmlns="http://www.w3.org/2000/svg" viewBox="0 0 66.11 66.11">
  <defs>
    <style>
      .cls-1 {
        fill: #d41010;
        stroke-width: 0px;
      }
    </style>
  </defs>
  <g id="Layer_1-2" data-name="Layer 1">
    <path class="cls-1" d="M35.29,33.06l-10.16,10.16,4.63,4.71,14.87-14.87-14.87-14.87-4.63,4.71,10.16,10.16ZM33.06,66.11c-4.57,0-8.87-.87-12.89-2.6-4.02-1.74-7.52-4.09-10.49-7.07s-5.33-6.47-7.07-10.49-2.6-8.32-2.6-12.89.87-8.87,2.6-12.89,4.09-7.52,7.07-10.49,6.47-5.33,10.49-7.07S28.48,0,33.06,0s8.87.87,12.89,2.6,7.52,4.09,10.49,7.07,5.33,6.47,7.07,10.49,2.6,8.32,2.6,12.89-.87,8.87-2.6,12.89-4.09,7.52-7.07,10.49-6.47,5.33-10.49,7.07-8.32,2.6-12.89,2.6ZM33.06,59.5c7.38,0,13.64-2.56,18.76-7.69s7.69-11.38,7.69-18.76-2.56-13.64-7.69-18.76-11.38-7.69-18.76-7.69-13.64,2.56-18.76,7.69-7.69,11.38-7.69,18.76,2.56,13.64,7.69,18.76,11.38,7.69,18.76,7.69Z"/>
  </g>
</svg>